<svg width="1086" height="883" viewBox="0 0 1086 883" fill="none" xmlns="http://www.w3.org/2000/svg">
<g filter="url(#filter0_f_55_15)">
<circle cx="644.5" cy="441.5" r="231.5" fill="url(#paint0_linear_55_15)" fill-opacity="0.5"/>
</g>
<path d="M1 633.66C1 633.66 71.5109 590.418 121.022 572.796C169.668 555.482 198.518 543.517 250.146 544.354C307.381 545.283 334.94 573.687 391.215 584.172C446.713 594.513 479.09 604.665 535.128 597.824C605.315 589.255 644.626 569.248 702.362 528.427C760.808 487.105 824.66 391.909 824.66 391.909" stroke="#FF6923" stroke-opacity="0.3" stroke-width="2"/>
<path d="M43.0931 613.751C43.0931 613.751 113.604 570.509 163.115 552.887C211.761 535.573 240.611 523.608 292.239 524.445C349.475 525.374 377.033 553.778 433.308 564.263C488.806 574.604 521.183 584.756 577.221 577.915C647.409 569.346 686.72 549.339 744.455 508.518C802.901 467.196 866.753 372 866.753 372" stroke="#FF6923" stroke-opacity="0.1" stroke-width="2"/>
<path d="M13.5142 633.66C13.5142 633.66 84.0251 590.418 133.536 572.796C182.182 555.482 211.032 543.517 262.66 544.354C319.896 545.283 347.454 573.687 403.729 584.172C459.227 594.513 491.604 604.665 547.642 597.824C617.83 589.255 657.141 569.248 714.877 528.427C773.322 487.105 837.174 391.909 837.174 391.909" stroke="#FF6923" stroke-opacity="0.3" stroke-width="2"/>
<path d="M55.6073 613.751C55.6073 613.751 126.118 570.509 175.63 552.887C224.275 535.573 253.125 523.608 304.753 524.445C361.989 525.374 389.547 553.778 445.822 564.263C501.321 574.604 533.697 584.756 589.735 577.915C659.923 569.346 699.234 549.339 756.97 508.518C815.415 467.196 879.267 372 879.267 372" stroke="#FF6923" stroke-opacity="0.1" stroke-width="2"/>
<path d="M13.5142 643.33C13.5142 643.33 84.0251 600.088 133.536 582.466C182.182 565.152 211.032 553.187 262.66 554.024C319.896 554.953 347.454 583.357 403.729 593.842C459.227 604.183 491.604 614.335 547.642 607.494C617.83 598.925 657.141 578.918 714.877 538.097C773.322 496.775 837.174 401.579 837.174 401.579" stroke="#FF6923" stroke-opacity="0.3" stroke-width="2"/>
<path d="M55.6073 623.421C55.6073 623.421 126.118 580.179 175.63 562.557C224.275 545.243 253.125 533.278 304.753 534.115C361.989 535.044 389.547 563.448 445.822 573.933C501.321 584.274 533.697 594.426 589.735 587.585C659.923 579.016 699.234 559.009 756.97 518.188C815.415 476.866 879.267 381.67 879.267 381.67" stroke="#FF6923" stroke-opacity="0.1" stroke-width="2"/>
<path d="M13.5142 653C13.5142 653 84.0251 609.758 133.536 592.136C182.182 574.822 211.032 562.857 262.66 563.694C319.896 564.623 347.454 593.027 403.729 603.512C459.227 613.853 491.604 624.005 547.642 617.164C617.83 608.595 657.141 588.588 714.877 547.767C773.322 506.445 837.174 411.249 837.174 411.249" stroke="#FF6923" stroke-opacity="0.3" stroke-width="2"/>
<path d="M55.6073 633.091C55.6073 633.091 126.118 589.849 175.63 572.227C224.275 554.913 253.125 542.948 304.753 543.785C361.989 544.714 389.547 573.118 445.822 583.603C501.321 593.944 533.697 604.096 589.735 597.255C659.923 588.686 699.234 568.679 756.97 527.858C815.415 486.536 879.267 391.34 879.267 391.34" stroke="#FF6923" stroke-opacity="0.1" stroke-width="2"/>
<defs>
<filter id="filter0_f_55_15" x="203.493" y="0.492508" width="882.015" height="882.015" filterUnits="userSpaceOnUse" color-interpolation-filters="sRGB">
<feFlood flood-opacity="0" result="BackgroundImageFix"/>
<feBlend mode="normal" in="SourceGraphic" in2="BackgroundImageFix" result="shape"/>
<feGaussianBlur stdDeviation="104.754" result="effect1_foregroundBlur_55_15"/>
</filter>
<linearGradient id="paint0_linear_55_15" x1="487.273" y1="366.262" x2="829.7" y2="561.108" gradientUnits="userSpaceOnUse">
<stop stop-color="#FF6923"/>
<stop offset="1" stop-color="#381708"/>
</linearGradient>
</defs>
</svg>
