<svg width="96" height="29" viewBox="0 0 96 29" fill="none" xmlns="http://www.w3.org/2000/svg">
<path d="M18.52 24H13.792L12.736 20.664H6.616L5.56 24H0.928L6.928 7.2H12.304L18.52 24ZM9.64 10.968L7.672 17.28H11.656L9.64 10.968ZM26.1979 24.384C21.1099 24.384 18.6139 22.224 18.6139 18.984V18.528H23.1259V18.96C23.1259 20.4 24.5179 20.952 26.2699 20.952C28.1659 20.952 28.8379 20.28 28.8379 19.32C28.8379 18.504 28.1899 18.144 27.5659 17.952L23.0779 16.656C21.6619 16.248 18.9979 15.456 18.9979 11.952C18.9979 8.4 21.8299 6.816 26.0299 6.816C30.7339 6.816 32.9179 8.832 32.9179 11.856V12.216H28.6699V11.88C28.6699 10.728 27.4939 10.272 25.9579 10.272C24.2299 10.272 23.5339 10.872 23.5339 11.736C23.5339 12.48 24.0619 12.792 24.7339 12.984L29.3419 14.352C31.0219 14.832 33.4219 15.84 33.4219 19.104C33.4219 22.704 30.5899 24.384 26.1979 24.384ZM34.0319 7.2H48.4079V11.16H43.5359V24H38.9279V11.16H34.0319V7.2ZM65.1816 24H60.4296L57.0936 18.408H54.8376V24H50.2296V7.2H57.3096C62.7096 7.2 64.4136 9.552 64.4136 13.008C64.4136 15.72 63.2616 17.208 61.3416 17.904L65.1816 24ZM57.4776 10.944H54.8376V14.976H57.4776C59.4456 14.976 59.9496 14.16 59.9496 12.984C59.9496 11.352 58.9656 10.944 57.4776 10.944ZM74.5285 24.408C68.3605 24.408 65.9365 21.024 65.9365 15.648C65.9365 9.408 69.2005 6.792 74.5285 6.792C80.7205 6.792 83.1685 10.224 83.1685 15.624C83.1685 21.816 79.9045 24.408 74.5285 24.408ZM74.5285 20.52C77.4565 20.52 78.4405 18.696 78.4405 15.624C78.4405 11.952 77.0245 10.68 74.5285 10.68C71.6485 10.68 70.6645 12.528 70.6645 15.648C70.6645 19.248 72.0565 20.52 74.5285 20.52Z" fill="#FFFEFF"/>
<circle cx="92" cy="20" r="4" fill="#FFFEFF"/>
</svg>
